<?xml version="1.0" standalone="yes"?>

<svg version="1.1" viewBox="0.0 0.0 203.750656167979 201.14173228346456" fill="none" stroke="none" stroke-linecap="square" stroke-miterlimit="10" xmlns="http://www.w3.org/2000/svg" xmlns:xlink="http://www.w3.org/1999/xlink"><clipPath id="p.0"><path d="m0 0l203.75066 0l0 201.14174l-203.75066 0l0 -201.14174z" clip-rule="nonzero"></path></clipPath><g clip-path="url(#p.0)"><path fill="#000000" fill-opacity="0.0" d="m0 0l203.75066 0l0 201.14174l-203.75066 0z" fill-rule="evenodd"></path><path fill="#000000" fill-opacity="0.0" d="m6.1666665 100.53543l0 0c0 -51.845184 43.02297 -93.874016 96.09449 -93.874016l0 0c25.48584 0 49.927856 9.89027 67.949066 27.495062c18.02121 17.604794 28.145416 41.482018 28.145416 66.37895l0 0c0 51.845184 -43.022964 93.87402 -96.09448 93.87402l0 0c-53.071518 0 -96.09449 -42.02884 -96.09449 -93.87402z" fill-rule="evenodd"></path><path stroke="#434343" stroke-width="8.0" stroke-linejoin="round" stroke-linecap="butt" d="m6.1666665 100.53543l0 0c0 -51.845184 43.02297 -93.874016 96.09449 -93.874016l0 0c25.48584 0 49.927856 9.89027 67.949066 27.495062c18.02121 17.604794 28.145416 41.482018 28.145416 66.37895l0 0c0 51.845184 -43.022964 93.87402 -96.09448 93.87402l0 0c-53.071518 0 -96.09449 -42.02884 -96.09449 -93.87402z" fill-rule="evenodd"></path><path fill="#000000" fill-opacity="0.0" d="m6.1679792 17.68504l183.9055 0l0 81.543304l-183.9055 0z" fill-rule="evenodd"></path><path fill="#434343" d="m38.856434 84.76941q-7.984377 0 -12.140627 -3.03125q-4.140625 -3.03125 -2.8125 -9.265625q0.703125 -3.3125 2.203125 -5.046875q1.5 -1.734375 3.734375 -1.734375q1.609375 0 2.453127 0.84375q0.84375 0.828125 0.5625 2.15625q-0.25 1.1875 -0.625 2.09375q-0.0625 0.234375 -0.2812519 0.84375q-0.203125 0.59375 -0.34375 1.25q-0.578125 2.703125 1.8593769 4.03125q2.453125 1.3125 7.375 1.3125q5.09375 0 8.359375 -1.828125q3.28125 -1.828125 3.984375 -5.125q0.4375 -2.046875 -0.578125 -3.515625q-1.0 -1.46875 -2.765625 -2.453125q-1.765625 -1.0 -5.078125 -2.4374962q-4.21875 -1.796875 -6.796875 -3.40625q-2.5625 -1.625 -4.046875 -4.421875q-1.46875 -2.796875 -0.59375 -6.9375q0.921875 -4.3125 3.9375 -7.671875q3.03125 -3.359375 7.78125 -5.21875q4.75 -1.859375 10.625 -1.859375q4.375 0 7.765625 1.296875q3.3906212 1.28125 5.015621 3.921875q1.625 2.640625 0.8125 6.484375q-0.8125 3.78125 -2.359375 5.703125q-1.546875 1.90625 -3.7656212 1.90625q-1.5625 0 -2.40625 -0.953125q-0.84375 -0.96875 -0.5625 -2.28125q0.25 -1.140625 0.625 -2.09375q0.5625 -1.8125 0.671875 -2.28125q0.53125 -2.53125 -1.65625 -3.84375q-2.171875 -1.328125 -5.828125 -1.328125q-5.15625 0 -8.296875 1.890625q-3.125 1.890625 -3.859375 5.3125q-0.484375 2.28125 0.578125 3.90625q1.078125 1.609375 2.9375 2.703125q1.875 1.078125 5.328125 2.578125q4.171875 1.859375 6.609375 3.359375q2.4375 1.5 3.84375 4.078125q1.40625 2.5781212 0.59375 6.359371q-1.5 7.078125 -7.6875 10.890625q-6.171875 3.8125 -15.171875 3.8125zm52.126827 -28.437496q1.921875 0 2.6875 0.984375q0.78125 0.984375 0.375 2.90625q-0.328125 1.5625 -1.90625 5.874996q-1.375 3.671875 -2.421875 6.9375q-1.046875 3.265625 -1.90625 7.296875q-0.484375 2.265625 -1.625 3.265625q-1.140625 0.984375 -3.25 0.984375q-1.984375 0 -2.671875 -1.015625q-0.671875 -1.015625 -0.25 -3.0625q0.515625 -2.40625 2.53125 -7.921875q1.734375 -4.796875 2.015625 -6.109375q0.203125 -0.96875 -0.453125 -0.96875q-0.78125 0 -2.640625 2.015625q-1.859375 2.0 -4.015625 5.3125q-2.140625 3.296875 -3.8125 6.953125q-1.265625 2.8125 -2.34375 3.8125q-1.078125 0.984375 -2.9375 0.984375q-1.859375 0 -2.4375 -1.34375q-0.578125 -1.359375 -0.296875 -4.171875q0.296875 -2.828125 1.46875 -8.28125q1.953125 -9.234371 5.96875 -19.249996q4.03125 -10.03125 9.15625 -16.84375q5.140625 -6.8125 10.3125 -6.8125q2.75 0 3.953125 2.375q1.21875 2.375 0.40625 6.15625q-1.28125 6.0625 -6.203125 12.578125q-4.921875 6.5 -14.765625 15.203121q-0.828125 3.109375 -1.53125 6.40625q3.0625 -5.09375 6.171875 -8.296871q3.125 -3.21875 5.78125 -4.59375q2.65625 -1.375 4.640625 -1.375zm-0.984375 -22.5q-1.078125 0 -3.0625 3.09375q-1.96875 3.078125 -4.3125 8.328125q-2.328125 5.25 -4.4375 11.4375q4.65625 -4.390625 8.171875 -9.546875q3.53125 -5.15625 4.4375 -9.359375q0.40625 -1.921875 0.1875 -2.9375q-0.203125 -1.015625 -0.984375 -1.015625zm10.040604 50.749996q-3.421875 0 -4.984375 -2.6875q-1.5625 -2.703125 -0.625 -7.09375q1.015625 -4.796875 4.15625 -9.078125q3.140625 -4.296871 7.375 -6.906246q4.25 -2.609375 8.390625 -2.609375q1.3125 0 1.65625 0.515625q0.34375 0.5 0.359375 1.828125q1.1875 -0.25 2.5625 -0.25q1.453125 0 2.078125 0.71875q0.625 0.71875 0.34375 2.046875q-0.296875 1.375 -1.609375 4.796871q-1.4375 3.65625 -2.515625 7.0q-1.0625 3.328125 -1.9375 7.46875q-0.484375 2.265625 -1.625 3.265625q-1.140625 0.984375 -3.25 0.984375q-2.03125 0 -2.8125 -0.984375q-0.78125 -1.0 -0.3125 -3.21875l0.265625 -0.953125q-2.953125 5.15625 -7.515625 5.15625zm3.625 -6.0625q1.671875 0 3.546875 -2.328125q1.890625 -2.34375 4.25 -8.34375l2.421875 -6.062496q-2.484375 0.0625 -4.96875 1.890625q-2.484375 1.8281212 -4.390625 4.828121q-1.890625 3.0 -2.609375 6.359375q-0.375 1.796875 0.109375 2.734375q0.5 0.921875 1.640625 0.921875zm44.198746 -22.187496q1.921875 0 2.6875 0.984375q0.78125 0.984375 0.375 2.90625q-0.328125 1.5625 -1.90625 5.874996q-1.375 3.671875 -2.421875 6.9375q-1.046875 3.265625 -1.90625 7.296875q-0.484375 2.265625 -1.625 3.265625q-1.140625 0.984375 -3.25 0.984375q-1.984375 0 -2.671875 -1.015625q-0.671875 -1.015625 -0.25 -3.0625q0.515625 -2.40625 2.53125 -7.921875q1.734375 -4.796875 2.015625 -6.109375q0.203125 -0.96875 -0.453125 -0.96875q-0.78125 0 -2.640625 2.015625q-1.859375 2.0 -4.015625 5.3125q-2.1406403 3.296875 -3.8125153 6.953125q-1.265625 2.8125 -2.34375 3.8125q-1.078125 0.984375 -2.9375 0.984375q-1.859375 0 -2.4375 -1.34375q-0.578125 -1.359375 -0.296875 -4.171875q0.296875 -2.828125 1.46875 -8.28125q1.953125 -9.234371 5.96875 -19.249996q4.03125 -10.03125 9.156265 -16.84375q5.140625 -6.8125 10.3125 -6.8125q2.75 0 3.953125 2.375q1.21875 2.375 0.40625 6.15625q-1.28125 6.0625 -6.203125 12.578125q-4.921875 6.5 -14.76564 15.203121q-0.828125 3.109375 -1.53125 6.40625q3.0625153 -5.09375 6.1718903 -8.296871q3.125 -3.21875 5.78125 -4.59375q2.65625 -1.375 4.640625 -1.375zm-0.984375 -22.5q-1.078125 0 -3.0625 3.09375q-1.96875 3.078125 -4.3125 8.328125q-2.328125 5.25 -4.4375 11.4375q4.65625 -4.390625 8.171875 -9.546875q3.53125 -5.15625 4.4375 -9.359375q0.40625 -1.921875 0.1875 -2.9375q-0.203125 -1.015625 -0.984375 -1.015625zm31.634338 30.718746q1.3125 0 2.046875 0.9375q0.734375 0.921875 0.4375 2.296875q-0.15625 0.78125 -0.703125 1.6875q-1.4375 2.21875 -3.5 3.71875q-2.046875 1.5 -4.140625 1.5q-1.6875 0 -2.609375 -1.203125q-0.921875 -1.203125 -0.484375 -3.25q0.25 -1.140625 0.640625 -2.453125q0.328125 -0.953125 0.40625 -1.3125q0.109375 -0.484375 -0.0625 -0.71875q-0.15625 -0.25 -0.453125 -0.25q-0.84375 0 -2.703125 2.015625q-1.859375 2.0 -4.015625 5.3125q-2.140625 3.296875 -3.8125 6.953125q-1.28125 2.875 -2.328125 3.84375q-1.03125 0.953125 -2.953125 0.953125q-2.28125 0 -2.703125 -2.390625q-0.421875 -2.40625 0.703125 -7.6875q1.65625 -7.796875 5.375 -14.812496q0.90625 -1.75 2.296875 -2.546875q1.40625 -0.8125 3.625 -0.8125q1.203125 0 1.609375 0.296875q0.421875 0.296875 0.25 1.140625q-0.203125 0.953125 -1.8125 4.3125q-1.125 2.4062462 -1.875 4.203121q-0.734375 1.796875 -1.53125 4.4375q3.09375 -5.15625 6.234375 -8.390621q3.15625 -3.25 5.78125 -4.625q2.625 -1.375 4.546875 -1.375q1.734375 0 2.453125 0.984375q0.71875 0.984375 0.3125 2.90625q-0.234375 1.140625 -1.578125 4.328121l0.546875 0z" fill-rule="nonzero"></path><path fill="#434343" d="m42.623295 156.58192q-2.828125 0 -4.046875 -2.296875q-1.21875 -2.3125 -0.359375 -6.40625q0.96875 -4.5 2.359375 -8.25q1.40625 -3.75 3.671875 -7.9375q0.984375 -1.8125 2.21875 -2.578125q1.25 -0.78125 3.59375 -0.78125q1.3125 0 1.734375 0.421875q0.4375 0.40625 0.265625 1.25q-0.109375 0.484375 -1.359375 3.234375q-1.078125 2.234375 -1.8125 4.03125q-2.546875 6.296875 -2.984375 8.390625q-0.28125 1.265625 -0.078125 1.78125q0.203125 0.5 0.859375 0.5q0.890625 0 2.65625 -1.828125q1.765625 -1.828125 4.078125 -5.515625q2.328125 -3.6875 4.8125 -8.90625q0.859375 -1.8125 2.015625 -2.578125q1.15625 -0.78125 3.125 -0.78125q1.3281212 0 1.7499962 0.6875q0.4375 0.6875 0.140625 2.0625q-0.328125 1.5 -0.953125 3.328125q-0.6249962 1.828125 -1.3281212 3.75q-1.4375 3.84375 -2.46875 7.0q-1.015625 3.140625 -1.875 7.171875q-0.484375 2.265625 -1.625 3.265625q-1.140625 0.984375 -3.234375 0.984375q-2.21875 0 -2.84375 -1.171875q-0.625 -1.171875 0.09375 -4.53125q0.125 -0.65625 0.75 -2.9375q-1.921875 4.203125 -4.40625 6.421875q-2.46875 2.21875 -4.75 2.21875zm46.09997 -13.671875q-0.390625 4.921875 -0.140625 9.71875q0.0625 0.78125 -0.109375 1.609375q-0.578125 2.703125 -3.875 2.703125q-1.859375 0 -2.640625 -1.015625q-0.765625 -1.015625 -1.0 -3.84375l-0.015625 -0.234375q-2.875 2.8125 -4.90625 3.78125q-2.03125 0.953125 -4.4375 0.953125q-3.65625 0 -5.453125 -2.71875q-1.796875 -2.734375 -0.859375 -7.125q1.015625 -4.796875 3.921875 -8.875q2.921875 -4.078125 7.015625 -6.6875q4.09375 -2.609375 8.59375 -3.15625q3.546875 -11.328133 8.53125 -19.734383q5.0 -8.40625 10.34375 -8.40625q2.578125 0 3.796875 2.34375q1.21875 2.34375 0.203125 7.078125q-1.40625 6.609375 -6.53125 15.4375q-5.109375 8.812508 -12.4375 18.171883zm13.046875 -37.140633q-1.734375 0 -5.15625 8.875q-3.40625 8.875 -6.15625 19.328133q9.71875 -14.406258 11.625 -23.406258q0.484375 -2.28125 0.359375 -3.53125q-0.125 -1.265625 -0.671875 -1.265625zm-26.796875 44.750008q1.203125 0 2.5 -0.890625q1.3125 -0.90625 3.609375 -3.484375q0.3125 -4.375 1.3125 -9.0625q0.40625 -1.859375 0.671875 -2.875q-3.5 0.953125 -6.390625 4.375q-2.890625 3.421875 -3.765625 7.5625q-0.9375 4.375 2.0625 4.375zm43.32997 -7.609375q-0.390625 4.921875 -0.140625 9.71875q0.0625 0.78125 -0.109375 1.609375q-0.578125 2.703125 -3.875 2.703125q-1.859375 0 -2.640625 -1.015625q-0.765625 -1.015625 -1.0 -3.84375l-0.015625 -0.234375q-2.875 2.8125 -4.90625 3.78125q-2.03125 0.953125 -4.4375 0.953125q-3.65625 0 -5.453125 -2.71875q-1.796875 -2.734375 -0.859375 -7.125q1.015625 -4.796875 3.921875 -8.875q2.921875 -4.078125 7.015625 -6.6875q4.09375 -2.609375 8.59375 -3.15625q3.546875 -11.328133 8.53125 -19.734383q5.0 -8.40625 10.34375 -8.40625q2.578125 0 3.796875 2.34375q1.21875 2.34375 0.203125 7.078125q-1.40625 6.609375 -6.53125 15.4375q-5.109375 8.812508 -12.4375 18.171883zm13.046875 -37.140633q-1.734375 0 -5.15625 8.875q-3.40625 8.875 -6.15625 19.328133q9.71875 -14.406258 11.625 -23.406258q0.484375 -2.28125 0.359375 -3.53125q-0.125 -1.265625 -0.671875 -1.265625zm-26.796875 44.750008q1.203125 0 2.5 -0.890625q1.3125 -0.90625 3.609375 -3.484375q0.3125 -4.375 1.3125 -9.0625q0.40625 -1.859375 0.671875 -2.875q-3.5 0.953125 -6.390625 4.375q-2.890625 3.421875 -3.765625 7.5625q-0.9375 4.375 2.0625 4.375zm33.704987 -26.156258q-2.515625 0 -3.53125 -1.171875q-1.0000153 -1.171875 -0.546875 -3.265625q0.4375 -2.09375 2.390625 -3.5q1.953125 -1.421875 4.40625 -1.421875q2.21875 0 3.359375 1.078125q1.15625 1.078125 0.734375 3.0625q-0.5 2.40625 -2.375 3.8125q-1.859375 1.40625 -4.4375 1.40625zm-12.593765 32.218758q-1.921875 0 -2.484375 -0.78125q-0.546875 -0.78125 -0.1875 -2.453125q0.109375 -0.484375 0.46875 -1.6875q3.296875 -10.96875 7.4375 -19.96875q0.859375 -1.859375 2.125 -2.609375q1.2812653 -0.75 3.7343903 -0.75q2.578125 0 2.140625 2.09375q-0.0625 0.296875 -0.375 1.140625q-5.4062653 12.84375 -7.8125153 21.53125q-0.53125 1.921875 -1.71875 2.703125q-1.171875 0.78125 -3.328125 0.78125zm15.054367 0q-2.28125 0 -2.703125 -2.390625q-0.421875 -2.40625 0.703125 -7.6875q1.65625 -7.796875 5.375 -14.8125q0.90625 -1.75 2.296875 -2.546875q1.40625 -0.8125 3.625 -0.8125q1.203125 0 1.609375 0.296875q0.421875 0.296875 0.25 1.140625q-0.203125 0.953125 -1.8125 4.3125q-1.125 2.40625 -1.875 4.203125q-0.734375 1.796875 -1.53125 4.4375q3.09375 -5.15625 6.234375 -8.390625q3.15625 -3.25 5.8125 -4.625q2.65625 -1.375 4.640625 -1.375q1.921875 0 2.6875 0.984375q0.78125 0.984375 0.375 2.90625q-0.328125 1.5625 -1.90625 5.875q-1.375 3.671875 -2.421875 6.9375q-1.046875 3.265625 -1.90625 7.296875q-0.484375 2.265625 -1.640625 3.265625q-1.140625 0.984375 -3.234375 0.984375q-1.984375 0 -2.671875 -1.015625q-0.671875 -1.015625 -0.25 -3.0625q0.515625 -2.40625 2.53125 -7.921875q1.734375 -4.796875 2.015625 -6.109375q0.203125 -0.96875 -0.453125 -0.96875q-0.78125 0 -2.625 2.015625q-1.828125 2.0 -4.0 5.3125q-2.171875 3.296875 -3.84375 6.953125q-1.265625 2.8125 -2.34375 3.8125q-1.078125 0.984375 -2.9375 0.984375z" fill-rule="nonzero"></path></g></svg>

